<mxfile host="app.diagrams.net" modified="2023-06-14T13:32:19.485Z" agent="Mozilla/5.0 (Windows NT 10.0; Win64; x64) AppleWebKit/537.36 (KHTML, like Gecko) Chrome/114.0.0.0 Safari/537.36" etag="ygmkxgrqfvyDiU_f2jUL" version="21.3.8" type="github">
  <diagram name="Strona-1" id="kZyrG7NVxSRQWBk4dAKm">
    <mxGraphModel dx="1434" dy="760" grid="1" gridSize="10" guides="1" tooltips="1" connect="1" arrows="1" fold="1" page="1" pageScale="1" pageWidth="827" pageHeight="1169" math="0" shadow="0">
      <root>
        <mxCell id="0" />
        <mxCell id="1" parent="0" />
        <mxCell id="BVTe9P3InDGG72oN6hyn-9" style="edgeStyle=orthogonalEdgeStyle;rounded=0;orthogonalLoop=1;jettySize=auto;html=1;exitX=0.5;exitY=1;exitDx=0;exitDy=0;entryX=0.5;entryY=0;entryDx=0;entryDy=0;entryPerimeter=0;" edge="1" parent="1" source="BVTe9P3InDGG72oN6hyn-1" target="BVTe9P3InDGG72oN6hyn-4">
          <mxGeometry relative="1" as="geometry">
            <Array as="points">
              <mxPoint x="190" y="90" />
              <mxPoint x="190" y="130" />
              <mxPoint x="105" y="130" />
            </Array>
          </mxGeometry>
        </mxCell>
        <mxCell id="BVTe9P3InDGG72oN6hyn-10" style="edgeStyle=orthogonalEdgeStyle;rounded=0;orthogonalLoop=1;jettySize=auto;html=1;exitX=0.75;exitY=1;exitDx=0;exitDy=0;" edge="1" parent="1" source="BVTe9P3InDGG72oN6hyn-1" target="BVTe9P3InDGG72oN6hyn-5">
          <mxGeometry relative="1" as="geometry" />
        </mxCell>
        <mxCell id="BVTe9P3InDGG72oN6hyn-1" value="" style="shape=actor;whiteSpace=wrap;html=1;" vertex="1" parent="1">
          <mxGeometry x="180" y="30" width="40" height="60" as="geometry" />
        </mxCell>
        <mxCell id="BVTe9P3InDGG72oN6hyn-15" style="edgeStyle=orthogonalEdgeStyle;shape=link;rounded=0;orthogonalLoop=1;jettySize=auto;html=1;exitX=1;exitY=0.5;exitDx=0;exitDy=0;exitPerimeter=0;entryX=0;entryY=0.5;entryDx=0;entryDy=0;entryPerimeter=0;" edge="1" parent="1" source="BVTe9P3InDGG72oN6hyn-2" target="BVTe9P3InDGG72oN6hyn-3">
          <mxGeometry relative="1" as="geometry" />
        </mxCell>
        <mxCell id="BVTe9P3InDGG72oN6hyn-2" value="" style="fontColor=#0066CC;verticalAlign=top;verticalLabelPosition=bottom;labelPosition=center;align=center;html=1;outlineConnect=0;fillColor=#CCCCCC;strokeColor=#6881B3;gradientColor=none;gradientDirection=north;strokeWidth=2;shape=mxgraph.networks.server;" vertex="1" parent="1">
          <mxGeometry x="145" y="440" width="90" height="100" as="geometry" />
        </mxCell>
        <mxCell id="BVTe9P3InDGG72oN6hyn-3" value="" style="fontColor=#0066CC;verticalAlign=top;verticalLabelPosition=bottom;labelPosition=center;align=center;html=1;outlineConnect=0;fillColor=#CCCCCC;strokeColor=#6881B3;gradientColor=none;gradientDirection=north;strokeWidth=2;shape=mxgraph.networks.server_storage;" vertex="1" parent="1">
          <mxGeometry x="430" y="437.5" width="105" height="105" as="geometry" />
        </mxCell>
        <mxCell id="BVTe9P3InDGG72oN6hyn-11" style="edgeStyle=orthogonalEdgeStyle;rounded=0;orthogonalLoop=1;jettySize=auto;html=1;exitX=0.5;exitY=1;exitDx=0;exitDy=0;exitPerimeter=0;shape=link;" edge="1" parent="1" source="BVTe9P3InDGG72oN6hyn-4" target="BVTe9P3InDGG72oN6hyn-8">
          <mxGeometry relative="1" as="geometry" />
        </mxCell>
        <mxCell id="BVTe9P3InDGG72oN6hyn-4" value="" style="fontColor=#0066CC;verticalAlign=top;verticalLabelPosition=bottom;labelPosition=center;align=center;html=1;outlineConnect=0;fillColor=#CCCCCC;strokeColor=#6881B3;gradientColor=none;gradientDirection=north;strokeWidth=2;shape=mxgraph.networks.mobile;" vertex="1" parent="1">
          <mxGeometry x="80" y="170" width="50" height="100" as="geometry" />
        </mxCell>
        <mxCell id="BVTe9P3InDGG72oN6hyn-12" style="edgeStyle=orthogonalEdgeStyle;rounded=0;orthogonalLoop=1;jettySize=auto;html=1;exitX=0.5;exitY=1;exitDx=0;exitDy=0;exitPerimeter=0;shape=link;" edge="1" parent="1" source="BVTe9P3InDGG72oN6hyn-5">
          <mxGeometry relative="1" as="geometry">
            <mxPoint x="190" y="310" as="targetPoint" />
            <Array as="points">
              <mxPoint x="290" y="310" />
            </Array>
          </mxGeometry>
        </mxCell>
        <mxCell id="BVTe9P3InDGG72oN6hyn-5" value="" style="fontColor=#0066CC;verticalAlign=top;verticalLabelPosition=bottom;labelPosition=center;align=center;html=1;outlineConnect=0;fillColor=#CCCCCC;strokeColor=#6881B3;gradientColor=none;gradientDirection=north;strokeWidth=2;shape=mxgraph.networks.pc;" vertex="1" parent="1">
          <mxGeometry x="240" y="170" width="100" height="70" as="geometry" />
        </mxCell>
        <mxCell id="BVTe9P3InDGG72oN6hyn-19" style="edgeStyle=orthogonalEdgeStyle;rounded=0;orthogonalLoop=1;jettySize=auto;html=1;exitX=0.5;exitY=0;exitDx=0;exitDy=0;exitPerimeter=0;entryX=0.5;entryY=0.94;entryDx=0;entryDy=0;entryPerimeter=0;shape=link;" edge="1" parent="1" source="BVTe9P3InDGG72oN6hyn-7" target="BVTe9P3InDGG72oN6hyn-3">
          <mxGeometry relative="1" as="geometry" />
        </mxCell>
        <mxCell id="BVTe9P3InDGG72oN6hyn-20" style="edgeStyle=orthogonalEdgeStyle;rounded=0;orthogonalLoop=1;jettySize=auto;html=1;exitX=0;exitY=0.5;exitDx=0;exitDy=0;exitPerimeter=0;entryX=1;entryY=0.5;entryDx=0;entryDy=0;" edge="1" parent="1" source="BVTe9P3InDGG72oN6hyn-7" target="BVTe9P3InDGG72oN6hyn-18">
          <mxGeometry relative="1" as="geometry" />
        </mxCell>
        <mxCell id="BVTe9P3InDGG72oN6hyn-7" value="" style="fontColor=#0066CC;verticalAlign=top;verticalLabelPosition=bottom;labelPosition=center;align=center;html=1;outlineConnect=0;fillColor=#CCCCCC;strokeColor=#6881B3;gradientColor=none;gradientDirection=north;strokeWidth=2;shape=mxgraph.networks.server;" vertex="1" parent="1">
          <mxGeometry x="437.5" y="570" width="90" height="100" as="geometry" />
        </mxCell>
        <mxCell id="BVTe9P3InDGG72oN6hyn-13" style="edgeStyle=orthogonalEdgeStyle;shape=link;rounded=0;orthogonalLoop=1;jettySize=auto;html=1;exitX=0.5;exitY=1;exitDx=0;exitDy=0;exitPerimeter=0;entryX=0.5;entryY=0;entryDx=0;entryDy=0;entryPerimeter=0;" edge="1" parent="1" source="BVTe9P3InDGG72oN6hyn-8" target="BVTe9P3InDGG72oN6hyn-2">
          <mxGeometry relative="1" as="geometry" />
        </mxCell>
        <mxCell id="BVTe9P3InDGG72oN6hyn-8" value="" style="fontColor=#0066CC;verticalAlign=top;verticalLabelPosition=bottom;labelPosition=center;align=center;html=1;outlineConnect=0;fillColor=#CCCCCC;strokeColor=#6881B3;gradientColor=none;gradientDirection=north;strokeWidth=2;shape=mxgraph.networks.router;" vertex="1" parent="1">
          <mxGeometry x="140" y="350" width="100" height="30" as="geometry" />
        </mxCell>
        <mxCell id="BVTe9P3InDGG72oN6hyn-21" style="edgeStyle=orthogonalEdgeStyle;rounded=0;orthogonalLoop=1;jettySize=auto;html=1;exitX=0.5;exitY=0;exitDx=0;exitDy=0;entryX=0.5;entryY=1;entryDx=0;entryDy=0;entryPerimeter=0;" edge="1" parent="1" source="BVTe9P3InDGG72oN6hyn-18" target="BVTe9P3InDGG72oN6hyn-2">
          <mxGeometry relative="1" as="geometry" />
        </mxCell>
        <mxCell id="BVTe9P3InDGG72oN6hyn-23" style="edgeStyle=orthogonalEdgeStyle;rounded=0;orthogonalLoop=1;jettySize=auto;html=1;exitX=0.25;exitY=1;exitDx=0;exitDy=0;entryX=0.5;entryY=0;entryDx=0;entryDy=0;" edge="1" parent="1" source="BVTe9P3InDGG72oN6hyn-18" target="BVTe9P3InDGG72oN6hyn-22">
          <mxGeometry relative="1" as="geometry" />
        </mxCell>
        <mxCell id="BVTe9P3InDGG72oN6hyn-18" value="ESP8266" style="rounded=1;whiteSpace=wrap;html=1;" vertex="1" parent="1">
          <mxGeometry x="125" y="590" width="130" height="60" as="geometry" />
        </mxCell>
        <mxCell id="BVTe9P3InDGG72oN6hyn-22" value="Heater" style="rounded=1;whiteSpace=wrap;html=1;" vertex="1" parent="1">
          <mxGeometry x="125" y="710" width="60" height="60" as="geometry" />
        </mxCell>
        <mxCell id="BVTe9P3InDGG72oN6hyn-25" style="edgeStyle=orthogonalEdgeStyle;rounded=0;orthogonalLoop=1;jettySize=auto;html=1;exitX=0.5;exitY=0;exitDx=0;exitDy=0;entryX=0.75;entryY=1;entryDx=0;entryDy=0;" edge="1" parent="1" source="BVTe9P3InDGG72oN6hyn-24" target="BVTe9P3InDGG72oN6hyn-18">
          <mxGeometry relative="1" as="geometry" />
        </mxCell>
        <mxCell id="BVTe9P3InDGG72oN6hyn-24" value="Thermistor" style="rounded=1;whiteSpace=wrap;html=1;" vertex="1" parent="1">
          <mxGeometry x="190" y="710" width="60" height="60" as="geometry" />
        </mxCell>
      </root>
    </mxGraphModel>
  </diagram>
</mxfile>
